# xmcd
#
# Track frame offsets: 
#        160
#        17220
#        33485
#        51892
#        69400
#        88070
#        108295
#        126952
#        151340
#        168000
#        182385
#        196235
#        210505
#
# Disc length: 2986 seconds
#
# Revision: 0
# Processed by: cddbd v1.5.1PL0 Copyright (c) Steve Scherf et al.
# Submitted via: ExactAudioCopy v0.95a3
#
DISCID=a30ba80d
DTITLE=Various Artist - Союз 17. Vol.2
DYEAR=1996
DGENRE=Pop
TTITLE0=Александр Айвазов - Я Прошу Тебя, Не Плачь
TTITLE1=Аркадий Укупник - Грустный Дождь
TTITLE2=Лайма - Жаворонок И Сова
TTITLE3=Дмитрий Маликов - Прощай, Моя Блондинка
TTITLE4=София Ротару - Нет Мне Места В Твоём Сердце
TTITLE5=Кай Метов - Тебя Со Мною Рядом Нет
TTITLE6=Валерий Меладзе - Актриса
TTITLE7=Нэнси - Чёрный Кадиллак
TTITLE8=Алёна Апина - Семечек Стакан
TTITLE9=Рок-Острова - Стежки
TTITLE10=Евгений Осин - Качка
TTITLE11=Вика Цыганова - Кому Это Надо
TTITLE12=Вахтанг Кикабидзе - Тишина
EXTD=
EXTT0=
EXTT1=
EXTT2=
EXTT3=
EXTT4=
EXTT5=
EXTT6=
EXTT7=
EXTT8=
EXTT9=
EXTT10=
EXTT11=
EXTT12=
PLAYORDER=
